<?xml version="1.0" encoding="UTF-8" standalone="no"?>
<!DOCTYPE svg PUBLIC "-//W3C//DTD SVG 1.1//EN"
 "http://www.w3.org/Graphics/SVG/1.1/DTD/svg11.dtd">
<!-- Generated by graphviz version 2.40.1 (20161225.0304)
 -->
<!-- Title: G Pages: 1 -->
<svg width="432pt" height="280pt"
 viewBox="0.00 0.00 432.00 279.88" xmlns="http://www.w3.org/2000/svg" xmlns:xlink="http://www.w3.org/1999/xlink">
<g id="graph0" class="graph" transform="scale(.1363 .1363) rotate(0) translate(4 2049.3333)">
<title>G</title>
<polygon fill="#ffffff" stroke="transparent" points="-4,4 -4,-2049.3333 3165.4119,-2049.3333 3165.4119,4 -4,4"/>
<!-- u26 -->
<g id="node1" class="node">
<title>u26</title>
<ellipse fill="#bbffbb" stroke="#000000" cx="1003.0759" cy="-1977" rx="28.5497" ry="18"/>
<text text-anchor="middle" x="1003.0759" y="-1972.8" font-family="Times,serif" font-size="14.00" fill="#000000">Main</text>
</g>
<!-- u20 -->
<g id="node10" class="node">
<title>u20</title>
<ellipse fill="#ffbbff" stroke="#000000" cx="1003.0759" cy="-1704" rx="99.5261" ry="18"/>
<text text-anchor="middle" x="1003.0759" y="-1699.8" font-family="Times,serif" font-size="14.00" fill="#000000">Constellation.Node.Main</text>
</g>
<!-- u26&#45;&gt;u20 -->
<g id="edge56" class="edge">
<title>u26&#45;&gt;u20</title>
<path fill="none" stroke="#000000" d="M1003.0759,-1958.6638C1003.0759,-1912.039 1003.0759,-1788.6843 1003.0759,-1732.5453"/>
<polygon fill="#000000" stroke="#000000" points="1006.576,-1732.2564 1003.0759,-1722.2564 999.576,-1732.2564 1006.576,-1732.2564"/>
</g>
<!-- u12 -->
<g id="node2" class="node">
<title>u12</title>
<ellipse fill="#ffffbb" stroke="#000000" cx="1475.0759" cy="-1159" rx="78.7703" ry="18"/>
<text text-anchor="middle" x="1475.0759" y="-1154.8" font-family="Times,serif" font-size="14.00" fill="#000000">Constellation.Node</text>
</g>
<!-- u7 -->
<g id="node6" class="node">
<title>u7</title>
<ellipse fill="#ffbbbb" stroke="#000000" cx="1978.0759" cy="-614" rx="118.8192" ry="18"/>
<text text-anchor="middle" x="1978.0759" y="-609.8" font-family="Times,serif" font-size="14.00" fill="#000000">Constellation.Enclave.Payload</text>
</g>
<!-- u12&#45;&gt;u7 -->
<g id="edge15" class="edge">
<title>u12&#45;&gt;u7</title>
<path fill="none" stroke="#000000" d="M1491.5256,-1141.1767C1565.5512,-1060.9701 1867.9379,-733.3344 1954.7014,-639.3263"/>
<polygon fill="#000000" stroke="#000000" points="1957.2874,-641.6848 1961.4977,-631.9625 1952.1434,-636.9372 1957.2874,-641.6848"/>
</g>
<!-- u3 -->
<g id="node7" class="node">
<title>u3</title>
<ellipse fill="#ffbbbb" stroke="#000000" cx="1572.0759" cy="-614" rx="111.3268" ry="18"/>
<text text-anchor="middle" x="1572.0759" y="-609.8" font-family="Times,serif" font-size="14.00" fill="#000000">Constellation.Enclave.Types</text>
</g>
<!-- u12&#45;&gt;u3 -->
<g id="edge14" class="edge">
<title>u12&#45;&gt;u3</title>
<path fill="none" stroke="#000000" d="M1478.3032,-1140.8669C1492.5299,-1060.9335 1549.7042,-739.6968 1567.0571,-642.1983"/>
<polygon fill="#000000" stroke="#000000" points="1570.5299,-642.6598 1568.8364,-632.2012 1563.6382,-641.4332 1570.5299,-642.6598"/>
</g>
<!-- u13 -->
<g id="node14" class="node">
<title>u13</title>
<ellipse fill="#ffbbff" stroke="#000000" cx="1894.0759" cy="-886" rx="101.6813" ry="18"/>
<text text-anchor="middle" x="1894.0759" y="-881.8" font-family="Times,serif" font-size="14.00" fill="#000000">Constellation.Node.Types</text>
</g>
<!-- u12&#45;&gt;u13 -->
<g id="edge16" class="edge">
<title>u12&#45;&gt;u13</title>
<path fill="none" stroke="#000000" d="M1501.2862,-1141.9226C1573.7147,-1094.7318 1776.6507,-962.5085 1858.8441,-908.9553"/>
<polygon fill="#000000" stroke="#000000" points="1860.8678,-911.8142 1867.3357,-903.4226 1857.0465,-905.9492 1860.8678,-911.8142"/>
</g>
<!-- u14 -->
<g id="node24" class="node">
<title>u14</title>
<ellipse fill="#ffff77" stroke="#000000" cx="1007.0759" cy="-886" rx="105.3319" ry="18"/>
<text text-anchor="middle" x="1007.0759" y="-881.8" font-family="Times,serif" font-size="14.00" fill="#000000">Constellation.Util.Logging</text>
</g>
<!-- u12&#45;&gt;u14 -->
<g id="edge17" class="edge">
<title>u12&#45;&gt;u14</title>
<path fill="none" stroke="#000000" d="M1446.1536,-1142.1286C1365.2472,-1094.9332 1136.5813,-961.5448 1045.3514,-908.3274"/>
<polygon fill="#000000" stroke="#000000" points="1047.1067,-905.2994 1036.7054,-903.2839 1043.5796,-911.3459 1047.1067,-905.2994"/>
</g>
<!-- u1 -->
<g id="node3" class="node">
<title>u1</title>
<ellipse fill="#ffffbb" stroke="#000000" cx="674.0759" cy="-1159" rx="87.9157" ry="18"/>
<text text-anchor="middle" x="674.0759" y="-1154.8" font-family="Times,serif" font-size="14.00" fill="#000000">Constellation.Enclave</text>
</g>
<!-- u1&#45;&gt;u7 -->
<g id="edge3" class="edge">
<title>u1&#45;&gt;u7</title>
<path fill="none" stroke="#000000" d="M713.102,-1142.6892C901.5375,-1063.9336 1716.7984,-723.1996 1927.9728,-634.9403"/>
<polygon fill="#000000" stroke="#000000" points="1929.4002,-638.1372 1937.277,-631.0517 1926.7008,-631.6786 1929.4002,-638.1372"/>
</g>
<!-- u1&#45;&gt;u3 -->
<g id="edge2" class="edge">
<title>u1&#45;&gt;u3</title>
<path fill="none" stroke="#000000" d="M685.7091,-1140.943C722.8031,-1083.8155 839.0095,-908.4067 893.0759,-868 1079.8265,-728.4312 1351.8287,-657.8535 1487.9281,-629.5002"/>
<polygon fill="#000000" stroke="#000000" points="1488.7979,-632.8947 1497.887,-627.4505 1487.3867,-626.0384 1488.7979,-632.8947"/>
</g>
<!-- u2 -->
<g id="node8" class="node">
<title>u2</title>
<ellipse fill="#ffbbbb" stroke="#000000" cx="391.0759" cy="-886" rx="104.8042" ry="18"/>
<text text-anchor="middle" x="391.0759" y="-881.8" font-family="Times,serif" font-size="14.00" fill="#000000">Constellation.Enclave.Key</text>
</g>
<!-- u1&#45;&gt;u2 -->
<g id="edge1" class="edge">
<title>u1&#45;&gt;u2</title>
<path fill="none" stroke="#000000" d="M655.5075,-1141.0877C606.5331,-1093.8439 473.7485,-965.7513 417.1732,-911.1752"/>
<polygon fill="#000000" stroke="#000000" points="419.3398,-908.4021 409.7127,-903.9782 414.4798,-913.44 419.3398,-908.4021"/>
</g>
<!-- u8 -->
<g id="node26" class="node">
<title>u8</title>
<ellipse fill="#ffff77" stroke="#000000" cx="735.0759" cy="-886" rx="111.1033" ry="18"/>
<text text-anchor="middle" x="735.0759" y="-881.8" font-family="Times,serif" font-size="14.00" fill="#000000">Constellation.Util.Exception</text>
</g>
<!-- u1&#45;&gt;u8 -->
<g id="edge4" class="edge">
<title>u1&#45;&gt;u8</title>
<path fill="none" stroke="#000000" d="M678.173,-1140.6638C688.6127,-1093.9419 716.2687,-970.17 728.7758,-914.1953"/>
<polygon fill="#000000" stroke="#000000" points="732.2316,-914.779 730.9966,-904.2564 725.4001,-913.2525 732.2316,-914.779"/>
</g>
<!-- u0 -->
<g id="node4" class="node">
<title>u0</title>
<ellipse fill="#bbbbff" stroke="#000000" cx="1166.0759" cy="-1977" rx="115.9641" ry="18"/>
<text text-anchor="middle" x="1166.0759" y="-1972.8" font-family="Times,serif" font-size="14.00" fill="#000000">Constellation.Configure.Main</text>
</g>
<!-- u11 -->
<g id="node5" class="node">
<title>u11</title>
<ellipse fill="#ffbbbb" stroke="#000000" cx="1409.0759" cy="-1977" rx="108.6719" ry="18"/>
<text text-anchor="middle" x="1409.0759" y="-1972.8" font-family="Times,serif" font-size="14.00" fill="#000000">Constellation.Enclave.Main</text>
</g>
<!-- u4 -->
<g id="node29" class="node">
<title>u4</title>
<ellipse fill="#ffff77" stroke="#000000" cx="539.0759" cy="-341" rx="113.5433" ry="18"/>
<text text-anchor="middle" x="539.0759" y="-336.8" font-family="Times,serif" font-size="14.00" fill="#000000">Constellation.Util.ByteString</text>
</g>
<!-- u3&#45;&gt;u4 -->
<g id="edge9" class="edge">
<title>u3&#45;&gt;u4</title>
<path fill="none" stroke="#000000" d="M1513.9512,-598.6389C1335.9373,-551.5936 798.7641,-409.6301 607.5615,-359.0993"/>
<polygon fill="#000000" stroke="#000000" points="608.1969,-355.6471 597.6345,-356.4758 606.4083,-362.4148 608.1969,-355.6471"/>
</g>
<!-- u2&#45;&gt;u3 -->
<g id="edge5" class="edge">
<title>u2&#45;&gt;u3</title>
<path fill="none" stroke="#000000" d="M454.154,-871.4723C655.4204,-825.1179 1281.7344,-680.8695 1497.8583,-631.0933"/>
<polygon fill="#000000" stroke="#000000" points="1498.8772,-634.4503 1507.8365,-628.7952 1497.3061,-627.6289 1498.8772,-634.4503"/>
</g>
<!-- u6 -->
<g id="node27" class="node">
<title>u6</title>
<ellipse fill="#ffff77" stroke="#000000" cx="384.0759" cy="-614" rx="108.196" ry="18"/>
<text text-anchor="middle" x="384.0759" y="-609.8" font-family="Times,serif" font-size="14.00" fill="#000000">Constellation.Util.Lockable</text>
</g>
<!-- u2&#45;&gt;u6 -->
<g id="edge8" class="edge">
<title>u2&#45;&gt;u6</title>
<path fill="none" stroke="#000000" d="M390.6057,-867.731C389.4102,-821.2769 386.2473,-698.3741 384.8078,-642.4408"/>
<polygon fill="#000000" stroke="#000000" points="388.3002,-642.0961 384.544,-632.1895 381.3025,-642.2763 388.3002,-642.0961"/>
</g>
<!-- u5 -->
<g id="node28" class="node">
<title>u5</title>
<ellipse fill="#ffff77" stroke="#000000" cx="384.0759" cy="-68" rx="97.1121" ry="18"/>
<text text-anchor="middle" x="384.0759" y="-63.8" font-family="Times,serif" font-size="14.00" fill="#000000">Constellation.Util.Either</text>
</g>
<!-- u2&#45;&gt;u5 -->
<g id="edge7" class="edge">
<title>u2&#45;&gt;u5</title>
<path fill="none" stroke="#000000" d="M378.6409,-867.9815C351.7945,-827.8523 289.0604,-727.1454 267.0759,-632 219.5894,-426.4862 329.7803,-176.7536 370.0554,-95.1833"/>
<polygon fill="#000000" stroke="#000000" points="373.2635,-96.5932 374.6051,-86.0836 367.0025,-93.4627 373.2635,-96.5932"/>
</g>
<!-- u2&#45;&gt;u4 -->
<g id="edge6" class="edge">
<title>u2&#45;&gt;u4</title>
<path fill="none" stroke="#000000" d="M401.0582,-867.8488C423.015,-827.0476 475.5721,-724.4149 501.0759,-632 527.0164,-538.0027 535.4091,-421.9075 537.9931,-369.2916"/>
<polygon fill="#000000" stroke="#000000" points="541.5005,-369.2076 538.4606,-359.0583 534.5078,-368.8881 541.5005,-369.2076"/>
</g>
<!-- u9 -->
<g id="node9" class="node">
<title>u9</title>
<ellipse fill="#bbffff" stroke="#000000" cx="391.0759" cy="-1159" rx="138.5974" ry="18"/>
<text text-anchor="middle" x="391.0759" y="-1154.8" font-family="Times,serif" font-size="14.00" fill="#000000">Constellation.Enclave.Keygen.Main</text>
</g>
<!-- u9&#45;&gt;u2 -->
<g id="edge12" class="edge">
<title>u9&#45;&gt;u2</title>
<path fill="none" stroke="#000000" d="M391.0759,-1140.6638C391.0759,-1094.039 391.0759,-970.6843 391.0759,-914.5453"/>
<polygon fill="#000000" stroke="#000000" points="394.576,-914.2564 391.0759,-904.2564 387.576,-914.2564 394.576,-914.2564"/>
</g>
<!-- u10 -->
<g id="node25" class="node">
<title>u10</title>
<ellipse fill="#ffff77" stroke="#000000" cx="842.0759" cy="-614" rx="91.0733" ry="18"/>
<text text-anchor="middle" x="842.0759" y="-609.8" font-family="Times,serif" font-size="14.00" fill="#000000">Constellation.Util.Text</text>
</g>
<!-- u9&#45;&gt;u10 -->
<g id="edge13" class="edge">
<title>u9&#45;&gt;u10</title>
<path fill="none" stroke="#000000" d="M404.2666,-1140.9291C438.1808,-1094.6776 531.6125,-968.5771 615.0759,-868 686.5107,-781.9178 776.3039,-684.3824 818.3322,-639.3093"/>
<polygon fill="#000000" stroke="#000000" points="821.1041,-641.4691 825.3717,-631.7717 815.9882,-636.6913 821.1041,-641.4691"/>
</g>
<!-- u20&#45;&gt;u12 -->
<g id="edge37" class="edge">
<title>u20&#45;&gt;u12</title>
<path fill="none" stroke="#000000" d="M1012.274,-1685.8325C1036.8117,-1638.3008 1107.4083,-1507.4896 1187.0759,-1414 1269.0641,-1317.787 1387.2581,-1224.4444 1443.2951,-1182.3266"/>
<polygon fill="#000000" stroke="#000000" points="1445.5071,-1185.043 1451.4204,-1176.2518 1441.3155,-1179.4366 1445.5071,-1185.043"/>
</g>
<!-- u20&#45;&gt;u1 -->
<g id="edge34" class="edge">
<title>u20&#45;&gt;u1</title>
<path fill="none" stroke="#000000" d="M982.5658,-1686.3229C938.8402,-1647.6386 835.5996,-1550.8428 776.0759,-1450 723.5218,-1360.9649 692.2114,-1240.6537 680.0016,-1186.9262"/>
<polygon fill="#000000" stroke="#000000" points="683.403,-1186.0981 677.8136,-1177.0975 676.5702,-1187.6191 683.403,-1186.0981"/>
</g>
<!-- u20&#45;&gt;u2 -->
<g id="edge35" class="edge">
<title>u20&#45;&gt;u2</title>
<path fill="none" stroke="#000000" d="M931.5119,-1691.439C741.1896,-1653.7353 222.9971,-1522.0537 16.0759,-1177 -66.7411,-1038.8977 195.368,-942.0751 324.0808,-903.9789"/>
<polygon fill="#000000" stroke="#000000" points="325.2435,-907.2856 333.8605,-901.1213 323.2802,-900.5665 325.2435,-907.2856"/>
</g>
<!-- u20&#45;&gt;u9 -->
<g id="edge36" class="edge">
<title>u20&#45;&gt;u9</title>
<path fill="none" stroke="#000000" d="M983.0615,-1686.1767C892.8137,-1605.809 523.602,-1277.0176 418.8829,-1183.7628"/>
<polygon fill="#000000" stroke="#000000" points="421.0423,-1180.9991 411.2466,-1176.9625 416.387,-1186.2268 421.0423,-1180.9991"/>
</g>
<!-- u18 -->
<g id="node11" class="node">
<title>u18</title>
<ellipse fill="#ffbbff" stroke="#000000" cx="130.0759" cy="-1159" rx="104.8559" ry="18"/>
<text text-anchor="middle" x="130.0759" y="-1154.8" font-family="Times,serif" font-size="14.00" fill="#000000">Constellation.Node.Config</text>
</g>
<!-- u20&#45;&gt;u18 -->
<g id="edge41" class="edge">
<title>u20&#45;&gt;u18</title>
<path fill="none" stroke="#000000" d="M975.0184,-1686.4841C846.2363,-1606.0876 311.8389,-1272.4718 166.6307,-1181.8206"/>
<polygon fill="#000000" stroke="#000000" points="168.3653,-1178.7774 158.0291,-1176.4507 164.6583,-1184.7154 168.3653,-1178.7774"/>
</g>
<!-- u15 -->
<g id="node13" class="node">
<title>u15</title>
<ellipse fill="#ffbbff" stroke="#000000" cx="1003.0759" cy="-1432" rx="94.2224" ry="18"/>
<text text-anchor="middle" x="1003.0759" y="-1427.8" font-family="Times,serif" font-size="14.00" fill="#000000">Constellation.Node.Api</text>
</g>
<!-- u20&#45;&gt;u15 -->
<g id="edge40" class="edge">
<title>u20&#45;&gt;u15</title>
<path fill="none" stroke="#000000" d="M1003.0759,-1685.731C1003.0759,-1639.2769 1003.0759,-1516.3741 1003.0759,-1460.4408"/>
<polygon fill="#000000" stroke="#000000" points="1006.576,-1460.1895 1003.0759,-1450.1895 999.576,-1460.1896 1006.576,-1460.1895"/>
</g>
<!-- u20&#45;&gt;u13 -->
<g id="edge38" class="edge">
<title>u20&#45;&gt;u13</title>
<path fill="none" stroke="#000000" d="M1095.1404,-1696.9783C1332.1426,-1673.3577 1962.9223,-1574.1578 2224.0759,-1177 2306.6532,-1051.4178 2067.3372,-946.9708 1952.1672,-905.3592"/>
<polygon fill="#000000" stroke="#000000" points="1953.0191,-901.9471 1942.4245,-901.882 1950.6661,-908.5398 1953.0191,-901.9471"/>
</g>
<!-- u22 -->
<g id="node18" class="node">
<title>u22</title>
<ellipse fill="#77ff77" stroke="#000000" cx="1234.0759" cy="-1159" rx="143.9099" ry="18"/>
<text text-anchor="middle" x="1234.0759" y="-1154.8" font-family="Times,serif" font-size="14.00" fill="#000000">Constellation.Node.Storage.Directory</text>
</g>
<!-- u20&#45;&gt;u22 -->
<g id="edge43" class="edge">
<title>u20&#45;&gt;u22</title>
<path fill="none" stroke="#000000" d="M1010.7617,-1685.8669C1044.7103,-1605.7716 1181.3511,-1283.3939 1222.374,-1186.6084"/>
<polygon fill="#000000" stroke="#000000" points="1225.6812,-1187.7742 1226.3612,-1177.2012 1219.2362,-1185.0425 1225.6812,-1187.7742"/>
</g>
<!-- u21 -->
<g id="node19" class="node">
<title>u21</title>
<ellipse fill="#77ff77" stroke="#000000" cx="2062.0759" cy="-1159" rx="152.5971" ry="18"/>
<text text-anchor="middle" x="2062.0759" y="-1154.8" font-family="Times,serif" font-size="14.00" fill="#000000">Constellation.Node.Storage.BerkeleyDb</text>
</g>
<!-- u20&#45;&gt;u21 -->
<g id="edge42" class="edge">
<title>u20&#45;&gt;u21</title>
<path fill="none" stroke="#000000" d="M1015.5677,-1685.9817C1057.5266,-1625.6518 1192.3321,-1433.4417 1220.0759,-1414 1442.6243,-1258.0474 1762.5405,-1195.6973 1936.9847,-1172.1714"/>
<polygon fill="#000000" stroke="#000000" points="1937.5254,-1175.6305 1946.9778,-1170.8448 1936.6041,-1168.6914 1937.5254,-1175.6305"/>
</g>
<!-- u23 -->
<g id="node21" class="node">
<title>u23</title>
<ellipse fill="#ffff77" stroke="#000000" cx="1328.0759" cy="-1432" rx="99.0589" ry="18"/>
<text text-anchor="middle" x="1328.0759" y="-1427.8" font-family="Times,serif" font-size="14.00" fill="#000000">Constellation.Util.AtExit</text>
</g>
<!-- u20&#45;&gt;u23 -->
<g id="edge44" class="edge">
<title>u20&#45;&gt;u23</title>
<path fill="none" stroke="#000000" d="M1024.4,-1686.1533C1080.8727,-1638.89 1234.3828,-1510.4139 1298.8982,-1456.4195"/>
<polygon fill="#000000" stroke="#000000" points="1301.2509,-1459.0145 1306.6732,-1449.9124 1296.7582,-1453.6465 1301.2509,-1459.0145"/>
</g>
<!-- u20&#45;&gt;u14 -->
<g id="edge39" class="edge">
<title>u20&#45;&gt;u14</title>
<path fill="none" stroke="#000000" d="M990.0364,-1685.9836C940.9879,-1615.944 773.5799,-1355.0651 838.0759,-1141 866.635,-1046.2111 943.2018,-954.2673 982.7249,-911.2785"/>
<polygon fill="#000000" stroke="#000000" points="985.4042,-913.5369 989.6537,-903.8316 980.2794,-908.7686 985.4042,-913.5369"/>
</g>
<!-- u19 -->
<g id="node22" class="node">
<title>u19</title>
<ellipse fill="#ffff77" stroke="#000000" cx="130.0759" cy="-886" rx="97.1381" ry="18"/>
<text text-anchor="middle" x="130.0759" y="-881.8" font-family="Times,serif" font-size="14.00" fill="#000000">Constellation.Util.String</text>
</g>
<!-- u18&#45;&gt;u19 -->
<g id="edge33" class="edge">
<title>u18&#45;&gt;u19</title>
<path fill="none" stroke="#000000" d="M130.0759,-1140.6638C130.0759,-1094.039 130.0759,-970.6843 130.0759,-914.5453"/>
<polygon fill="#000000" stroke="#000000" points="133.576,-914.2564 130.0759,-904.2564 126.576,-914.2564 133.576,-914.2564"/>
</g>
<!-- u18&#45;&gt;u8 -->
<g id="edge32" class="edge">
<title>u18&#45;&gt;u8</title>
<path fill="none" stroke="#000000" d="M167.4648,-1142.1286C272.7083,-1094.6386 571.3582,-959.8759 687.7838,-907.3401"/>
<polygon fill="#000000" stroke="#000000" points="689.487,-910.4114 697.1624,-903.108 686.6079,-904.0309 689.487,-910.4114"/>
</g>
<!-- u17 -->
<g id="node12" class="node">
<title>u17</title>
<ellipse fill="#ffbbff" stroke="#000000" cx="2972.0759" cy="-1159" rx="121.2504" ry="18"/>
<text text-anchor="middle" x="2972.0759" y="-1154.8" font-family="Times,serif" font-size="14.00" fill="#000000">Constellation.Node.ServantApi</text>
</g>
<!-- u17&#45;&gt;u7 -->
<g id="edge30" class="edge">
<title>u17&#45;&gt;u7</title>
<path fill="none" stroke="#000000" d="M2945.3646,-1141.3392C2874.0732,-1094.4823 2672.8287,-964.0325 2498.0759,-868 2327.7773,-774.4153 2117.9985,-677.2608 2025.5938,-635.3453"/>
<polygon fill="#000000" stroke="#000000" points="2026.7847,-632.0425 2016.2314,-631.1054 2023.8969,-638.4191 2026.7847,-632.0425"/>
</g>
<!-- u17&#45;&gt;u3 -->
<g id="edge28" class="edge">
<title>u17&#45;&gt;u3</title>
<path fill="none" stroke="#000000" d="M2928.6415,-1142.0916C2723.0843,-1062.0712 1848.6447,-721.6643 1624.562,-634.4321"/>
<polygon fill="#000000" stroke="#000000" points="1625.5923,-631.0774 1615.0038,-630.7112 1623.0529,-637.6005 1625.5923,-631.0774"/>
</g>
<!-- u17&#45;&gt;u13 -->
<g id="edge31" class="edge">
<title>u17&#45;&gt;u13</title>
<path fill="none" stroke="#000000" d="M2910.6382,-1143.4411C2723.0664,-1095.9392 2158.6818,-953.0106 1962.3147,-903.2813"/>
<polygon fill="#000000" stroke="#000000" points="1962.963,-899.835 1952.4097,-900.7729 1961.2444,-906.6208 1962.963,-899.835"/>
</g>
<!-- u17&#45;&gt;u4 -->
<g id="edge29" class="edge">
<title>u17&#45;&gt;u4</title>
<path fill="none" stroke="#000000" d="M2952.1759,-1141.2051C2862.1841,-1061.8514 2481.3686,-737.9555 2106.0759,-596 1593.2016,-402.0038 931.126,-355.5259 661.4729,-344.4447"/>
<polygon fill="#000000" stroke="#000000" points="661.3992,-340.939 651.2667,-344.0345 661.1181,-347.9333 661.3992,-340.939"/>
</g>
<!-- u15&#45;&gt;u12 -->
<g id="edge24" class="edge">
<title>u15&#45;&gt;u12</title>
<path fill="none" stroke="#000000" d="M1032.9597,-1414.7155C1115.3434,-1367.0656 1345.6383,-1233.8654 1437.0154,-1181.0138"/>
<polygon fill="#000000" stroke="#000000" points="1439.0228,-1183.896 1445.9268,-1175.8595 1435.5181,-1177.8366 1439.0228,-1183.896"/>
</g>
<!-- u15&#45;&gt;u7 -->
<g id="edge23" class="edge">
<title>u15&#45;&gt;u7</title>
<path fill="none" stroke="#000000" d="M1089.4241,-1424.7049C1476.2529,-1391.6223 3033.8813,-1253.9807 3102.0759,-1177 3412.0052,-827.1397 2416.8035,-668.6348 2083.188,-626.166"/>
<polygon fill="#000000" stroke="#000000" points="2083.3941,-622.6643 2073.0343,-624.8833 2082.5168,-629.6091 2083.3941,-622.6643"/>
</g>
<!-- u15&#45;&gt;u3 -->
<g id="edge21" class="edge">
<title>u15&#45;&gt;u3</title>
<path fill="none" stroke="#000000" d="M1004.8639,-1413.8196C1010.1708,-1366.244 1028.856,-1235.2467 1081.0759,-1141 1207.5997,-912.6491 1454.2929,-706.266 1541.0199,-637.8808"/>
<polygon fill="#000000" stroke="#000000" points="1543.1952,-640.6228 1548.904,-631.6975 1538.8754,-635.1146 1543.1952,-640.6228"/>
</g>
<!-- u15&#45;&gt;u13 -->
<g id="edge25" class="edge">
<title>u15&#45;&gt;u13</title>
<path fill="none" stroke="#000000" d="M1076.8255,-1420.6909C1265.7305,-1390.1557 1759.3584,-1299.9763 1862.0759,-1177 1925.7431,-1100.7757 1910.8596,-971.3694 1900.247,-914.3802"/>
<polygon fill="#000000" stroke="#000000" points="1903.6288,-913.4375 1898.2704,-904.2976 1896.7596,-914.7841 1903.6288,-913.4375"/>
</g>
<!-- u16 -->
<g id="node23" class="node">
<title>u16</title>
<ellipse fill="#ffff77" stroke="#000000" cx="945.0759" cy="-1159" rx="89.447" ry="18"/>
<text text-anchor="middle" x="945.0759" y="-1154.8" font-family="Times,serif" font-size="14.00" fill="#000000">Constellation.Util.Wai</text>
</g>
<!-- u15&#45;&gt;u16 -->
<g id="edge27" class="edge">
<title>u15&#45;&gt;u16</title>
<path fill="none" stroke="#000000" d="M999.1803,-1413.6638C989.254,-1366.9419 962.9581,-1243.17 951.0661,-1187.1953"/>
<polygon fill="#000000" stroke="#000000" points="954.4564,-1186.3107 948.9545,-1177.2564 947.6092,-1187.7655 954.4564,-1186.3107"/>
</g>
<!-- u15&#45;&gt;u14 -->
<g id="edge26" class="edge">
<title>u15&#45;&gt;u14</title>
<path fill="none" stroke="#000000" d="M982.0142,-1414.448C932.4218,-1370.8626 814.8185,-1253.1024 847.0759,-1141 873.9591,-1047.574 946.2487,-955.2865 983.7662,-911.8082"/>
<polygon fill="#000000" stroke="#000000" points="986.6236,-913.8571 990.5653,-904.0227 981.3512,-909.2526 986.6236,-913.8571"/>
</g>
<!-- u15&#45;&gt;u4 -->
<g id="edge22" class="edge">
<title>u15&#45;&gt;u4</title>
<path fill="none" stroke="#000000" d="M947.5994,-1417.3705C852.4887,-1389.0076 660.5023,-1316.6769 577.0759,-1177 493.4642,-1037.0129 527.2593,-499.8215 536.8564,-369.571"/>
<polygon fill="#000000" stroke="#000000" points="540.3735,-369.4727 537.6304,-359.2392 533.3931,-368.9498 540.3735,-369.4727"/>
</g>
<!-- u13&#45;&gt;u7 -->
<g id="edge19" class="edge">
<title>u13&#45;&gt;u7</title>
<path fill="none" stroke="#000000" d="M1899.7178,-867.731C1914.1237,-821.0834 1952.3359,-697.3486 1969.5075,-641.7451"/>
<polygon fill="#000000" stroke="#000000" points="1972.8519,-642.7771 1972.4585,-632.1895 1966.1636,-640.7115 1972.8519,-642.7771"/>
</g>
<!-- u13&#45;&gt;u3 -->
<g id="edge18" class="edge">
<title>u13&#45;&gt;u3</title>
<path fill="none" stroke="#000000" d="M1872.9486,-868.1533C1816.9971,-820.89 1664.9041,-692.4139 1600.9842,-638.4195"/>
<polygon fill="#000000" stroke="#000000" points="1603.1789,-635.6917 1593.281,-631.9124 1598.6617,-641.0392 1603.1789,-635.6917"/>
</g>
<!-- u28 -->
<g id="node15" class="node">
<title>u28</title>
<ellipse fill="#77ff77" stroke="#000000" cx="2402.0759" cy="-1159" rx="130.9143" ry="18"/>
<text text-anchor="middle" x="2402.0759" y="-1154.8" font-family="Times,serif" font-size="14.00" fill="#000000">Constellation.Node.Storage.Sqlite</text>
</g>
<!-- u28&#45;&gt;u7 -->
<g id="edge61" class="edge">
<title>u28&#45;&gt;u7</title>
<path fill="none" stroke="#000000" d="M2387.9686,-1140.8669C2325.2712,-1060.277 2071.7476,-734.4035 1998.18,-639.8414"/>
<polygon fill="#000000" stroke="#000000" points="2000.9239,-637.6683 1992.0209,-631.9247 1995.3989,-641.9666 2000.9239,-637.6683"/>
</g>
<!-- u28&#45;&gt;u3 -->
<g id="edge60" class="edge">
<title>u28&#45;&gt;u3</title>
<path fill="none" stroke="#000000" d="M2379.3934,-1141.1002C2319.6047,-1094.2017 2152.1802,-964.6983 2005.0759,-868 1864.9357,-775.8796 1690.8252,-678.7353 1612.9938,-636.1686"/>
<polygon fill="#000000" stroke="#000000" points="1614.4425,-632.972 1603.9882,-631.2522 1611.0883,-639.116 1614.4425,-632.972"/>
</g>
<!-- u28&#45;&gt;u13 -->
<g id="edge62" class="edge">
<title>u28&#45;&gt;u13</title>
<path fill="none" stroke="#000000" d="M2369.5254,-1141.5073C2280.5315,-1093.6818 2033.2742,-960.8054 1935.0579,-908.0238"/>
<polygon fill="#000000" stroke="#000000" points="1936.4941,-904.8223 1926.0287,-903.1715 1933.1805,-910.9883 1936.4941,-904.8223"/>
</g>
<!-- u27 -->
<g id="node16" class="node">
<title>u27</title>
<ellipse fill="#77ff77" stroke="#000000" cx="2692.0759" cy="-1159" rx="141.02" ry="18"/>
<text text-anchor="middle" x="2692.0759" y="-1154.8" font-family="Times,serif" font-size="14.00" fill="#000000">Constellation.Node.Storage.LevelDb</text>
</g>
<!-- u27&#45;&gt;u7 -->
<g id="edge58" class="edge">
<title>u27&#45;&gt;u7</title>
<path fill="none" stroke="#000000" d="M2681.7899,-1140.778C2653.1766,-1091.3972 2568.0056,-953.0189 2466.0759,-868 2328.5084,-753.2558 2130.5715,-670.3051 2034.5677,-634.1528"/>
<polygon fill="#000000" stroke="#000000" points="2035.6362,-630.8158 2025.0436,-630.5943 2033.1861,-637.373 2035.6362,-630.8158"/>
</g>
<!-- u27&#45;&gt;u3 -->
<g id="edge57" class="edge">
<title>u27&#45;&gt;u3</title>
<path fill="none" stroke="#000000" d="M2656.08,-1141.4841C2490.1008,-1060.7175 1798.9426,-724.3949 1616.4324,-635.5842"/>
<polygon fill="#000000" stroke="#000000" points="1617.9027,-632.4073 1607.3793,-631.1789 1614.8397,-638.7016 1617.9027,-632.4073"/>
</g>
<!-- u27&#45;&gt;u13 -->
<g id="edge59" class="edge">
<title>u27&#45;&gt;u13</title>
<path fill="none" stroke="#000000" d="M2642.7596,-1142.1286C2502.2491,-1094.0593 2100.3722,-956.575 1950.9428,-905.4545"/>
<polygon fill="#000000" stroke="#000000" points="1951.6431,-901.9949 1941.0485,-902.0696 1949.3772,-908.6181 1951.6431,-901.9949"/>
</g>
<!-- u24 -->
<g id="node17" class="node">
<title>u24</title>
<ellipse fill="#77ff77" stroke="#000000" cx="1712.0759" cy="-1159" rx="140.5527" ry="18"/>
<text text-anchor="middle" x="1712.0759" y="-1154.8" font-family="Times,serif" font-size="14.00" fill="#000000">Constellation.Node.Storage.Memory</text>
</g>
<!-- u24&#45;&gt;u7 -->
<g id="edge54" class="edge">
<title>u24&#45;&gt;u7</title>
<path fill="none" stroke="#000000" d="M1713.8814,-1140.7457C1719.0987,-1093.5342 1736.8792,-964.3648 1783.0759,-868 1827.9649,-774.3629 1911.1593,-682.1473 1952.8645,-639.1275"/>
<polygon fill="#000000" stroke="#000000" points="1955.4221,-641.5181 1959.9106,-631.921 1950.417,-636.6243 1955.4221,-641.5181"/>
</g>
<!-- u24&#45;&gt;u3 -->
<g id="edge53" class="edge">
<title>u24&#45;&gt;u3</title>
<path fill="none" stroke="#000000" d="M1707.4178,-1140.8669C1686.8637,-1060.8526 1604.1977,-739.0456 1579.2435,-641.9027"/>
<polygon fill="#000000" stroke="#000000" points="1582.6295,-641.0159 1576.7514,-632.2012 1575.8496,-642.7576 1582.6295,-641.0159"/>
</g>
<!-- u24&#45;&gt;u13 -->
<g id="edge55" class="edge">
<title>u24&#45;&gt;u13</title>
<path fill="none" stroke="#000000" d="M1724.3,-1140.6638C1755.7825,-1093.4401 1839.7409,-967.5025 1876.4655,-912.4155"/>
<polygon fill="#000000" stroke="#000000" points="1879.5077,-914.1619 1882.1426,-903.8999 1873.6834,-910.279 1879.5077,-914.1619"/>
</g>
<!-- u22&#45;&gt;u7 -->
<g id="edge49" class="edge">
<title>u22&#45;&gt;u7</title>
<path fill="none" stroke="#000000" d="M1258.4071,-1141.1767C1368.5723,-1060.4778 1820.6715,-729.303 1945.829,-637.6217"/>
<polygon fill="#000000" stroke="#000000" points="1947.9314,-640.4202 1953.9303,-631.6873 1943.7948,-634.7732 1947.9314,-640.4202"/>
</g>
<!-- u22&#45;&gt;u3 -->
<g id="edge48" class="edge">
<title>u22&#45;&gt;u3</title>
<path fill="none" stroke="#000000" d="M1245.3217,-1140.8669C1295.1514,-1060.5202 1496.1851,-736.3683 1555.5145,-640.7039"/>
<polygon fill="#000000" stroke="#000000" points="1558.6631,-642.2677 1560.9593,-631.9247 1552.7143,-638.5783 1558.6631,-642.2677"/>
</g>
<!-- u22&#45;&gt;u13 -->
<g id="edge51" class="edge">
<title>u22&#45;&gt;u13</title>
<path fill="none" stroke="#000000" d="M1275.8625,-1141.7155C1392.129,-1093.6235 1719.0769,-958.3859 1844.3622,-906.5634"/>
<polygon fill="#000000" stroke="#000000" points="1845.8333,-909.7426 1853.7361,-902.686 1843.1576,-903.2741 1845.8333,-909.7426"/>
</g>
<!-- u22&#45;&gt;u14 -->
<g id="edge52" class="edge">
<title>u22&#45;&gt;u14</title>
<path fill="none" stroke="#000000" d="M1219.1818,-1141.0877C1180.0591,-1094.0371 1074.2594,-966.7978 1028.569,-911.8485"/>
<polygon fill="#000000" stroke="#000000" points="1031.1096,-909.4297 1022.0248,-903.9782 1025.7272,-913.9052 1031.1096,-909.4297"/>
</g>
<!-- u22&#45;&gt;u8 -->
<g id="edge50" class="edge">
<title>u22&#45;&gt;u8</title>
<path fill="none" stroke="#000000" d="M1201.7196,-1141.2981C1114.0567,-1093.3382 872.0998,-960.965 775.5899,-908.165"/>
<polygon fill="#000000" stroke="#000000" points="777.1672,-905.0384 766.7144,-903.3092 773.8074,-911.1794 777.1672,-905.0384"/>
</g>
<!-- u21&#45;&gt;u7 -->
<g id="edge46" class="edge">
<title>u21&#45;&gt;u7</title>
<path fill="none" stroke="#000000" d="M2059.281,-1140.8669C2046.9611,-1060.9335 1997.4493,-739.6968 1982.422,-642.1983"/>
<polygon fill="#000000" stroke="#000000" points="1985.8637,-641.5513 1980.8812,-632.2012 1978.9454,-642.6177 1985.8637,-641.5513"/>
</g>
<!-- u21&#45;&gt;u3 -->
<g id="edge45" class="edge">
<title>u21&#45;&gt;u3</title>
<path fill="none" stroke="#000000" d="M2039.6871,-1141.181C1990.4298,-1101.4334 1870.126,-1001.3389 1783.0759,-904 1702.417,-813.8077 1622.6278,-693.4354 1588.8674,-640.676"/>
<polygon fill="#000000" stroke="#000000" points="1591.618,-638.4794 1583.2939,-631.9251 1585.7139,-642.2399 1591.618,-638.4794"/>
</g>
<!-- u21&#45;&gt;u13 -->
<g id="edge47" class="edge">
<title>u21&#45;&gt;u13</title>
<path fill="none" stroke="#000000" d="M2050.7921,-1140.6638C2021.7912,-1093.5374 1944.5507,-968.0215 1910.5418,-912.7571"/>
<polygon fill="#000000" stroke="#000000" points="1913.3131,-910.5822 1905.0912,-903.8999 1907.3514,-914.2509 1913.3131,-910.5822"/>
</g>
<!-- u25 -->
<g id="node20" class="node">
<title>u25</title>
<ellipse fill="#ffff77" stroke="#000000" cx="1642.0759" cy="-1977" rx="106.2837" ry="18"/>
<text text-anchor="middle" x="1642.0759" y="-1972.8" font-family="Times,serif" font-size="14.00" fill="#000000">Constellation.Util.Network</text>
</g>
<!-- u14&#45;&gt;u10 -->
<g id="edge20" class="edge">
<title>u14&#45;&gt;u10</title>
<path fill="none" stroke="#000000" d="M995.9936,-867.731C967.5789,-820.8898 892.0129,-696.3204 858.4888,-641.0565"/>
<polygon fill="#000000" stroke="#000000" points="861.289,-638.9241 853.11,-632.1895 855.3041,-642.5547 861.289,-638.9241"/>
</g>
<!-- u6&#45;&gt;u4 -->
<g id="edge11" class="edge">
<title>u6&#45;&gt;u4</title>
<path fill="none" stroke="#000000" d="M394.4865,-595.6638C421.1791,-548.6505 492.1654,-423.6231 523.6577,-368.1559"/>
<polygon fill="#000000" stroke="#000000" points="526.8168,-369.6806 528.7105,-359.2564 520.7295,-366.2244 526.8168,-369.6806"/>
</g>
<!-- u4&#45;&gt;u5 -->
<g id="edge10" class="edge">
<title>u4&#45;&gt;u5</title>
<path fill="none" stroke="#000000" d="M528.6652,-322.6638C501.9727,-275.6505 430.9864,-150.6231 399.4941,-95.1559"/>
<polygon fill="#000000" stroke="#000000" points="402.4223,-93.2244 394.4412,-86.2564 396.335,-96.6806 402.4223,-93.2244"/>
</g>
</g>
</svg>
