<?xml version="1.0" encoding="UTF-8" standalone="no"?>
<!DOCTYPE svg PUBLIC "-//W3C//DTD SVG 1.1//EN"
 "http://www.w3.org/Graphics/SVG/1.1/DTD/svg11.dtd">
<!-- Generated by graphviz version 2.40.1 (20161225.0304)
 -->
<!-- Title: G Pages: 1 -->
<svg width="432pt" height="282pt"
 viewBox="0.00 0.00 432.00 282.45" xmlns="http://www.w3.org/2000/svg" xmlns:xlink="http://www.w3.org/1999/xlink">
<g id="graph0" class="graph" transform="scale(.1368 .1368) rotate(0) translate(4 2060)">
<title>G</title>
<polygon fill="#ffffff" stroke="transparent" points="-4,4 -4,-2060 3152.7878,-2060 3152.7878,4 -4,4"/>
<!-- u25 -->
<g id="node1" class="node">
<title>u25</title>
<ellipse fill="#bbffbb" stroke="#000000" cx="2010.7584" cy="-1987" rx="28.5497" ry="18"/>
<text text-anchor="middle" x="2010.7584" y="-1982.8" font-family="Times,serif" font-size="14.00" fill="#000000">Main</text>
</g>
<!-- u19 -->
<g id="node10" class="node">
<title>u19</title>
<ellipse fill="#ffbbff" stroke="#000000" cx="2010.7584" cy="-1713" rx="99.5261" ry="18"/>
<text text-anchor="middle" x="2010.7584" y="-1708.8" font-family="Times,serif" font-size="14.00" fill="#000000">Constellation.Node.Main</text>
</g>
<!-- u25&#45;&gt;u19 -->
<g id="edge53" class="edge">
<title>u25&#45;&gt;u19</title>
<path fill="none" stroke="#000000" d="M2010.7584,-1968.5966C2010.7584,-1921.801 2010.7584,-1797.9945 2010.7584,-1741.6499"/>
<polygon fill="#000000" stroke="#000000" points="2014.2585,-1741.3232 2010.7584,-1731.3233 2007.2585,-1741.3233 2014.2585,-1741.3232"/>
</g>
<!-- u12 -->
<g id="node2" class="node">
<title>u12</title>
<ellipse fill="#ffffbb" stroke="#000000" cx="1693.7584" cy="-1165" rx="78.7703" ry="18"/>
<text text-anchor="middle" x="1693.7584" y="-1160.8" font-family="Times,serif" font-size="14.00" fill="#000000">Constellation.Node</text>
</g>
<!-- u7 -->
<g id="node6" class="node">
<title>u7</title>
<ellipse fill="#ffbbbb" stroke="#000000" cx="1136.7584" cy="-617" rx="118.8192" ry="18"/>
<text text-anchor="middle" x="1136.7584" y="-612.8" font-family="Times,serif" font-size="14.00" fill="#000000">Constellation.Enclave.Payload</text>
</g>
<!-- u12&#45;&gt;u7 -->
<g id="edge15" class="edge">
<title>u12&#45;&gt;u7</title>
<path fill="none" stroke="#000000" d="M1681.1026,-1147.1709C1647.1327,-1099.8896 1549.9879,-968.4033 1453.7584,-873 1358.4751,-778.5348 1230.3693,-683.5203 1170.3826,-640.6262"/>
<polygon fill="#000000" stroke="#000000" points="1172.2139,-637.6335 1162.0384,-634.6821 1168.1524,-643.3348 1172.2139,-637.6335"/>
</g>
<!-- u3 -->
<g id="node7" class="node">
<title>u3</title>
<ellipse fill="#ffbbbb" stroke="#000000" cx="1548.7584" cy="-617" rx="111.3268" ry="18"/>
<text text-anchor="middle" x="1548.7584" y="-612.8" font-family="Times,serif" font-size="14.00" fill="#000000">Constellation.Enclave.Types</text>
</g>
<!-- u12&#45;&gt;u3 -->
<g id="edge14" class="edge">
<title>u12&#45;&gt;u3</title>
<path fill="none" stroke="#000000" d="M1688.9339,-1146.7671C1667.622,-1066.2227 1581.8366,-742.013 1556.0959,-644.7308"/>
<polygon fill="#000000" stroke="#000000" points="1559.4689,-643.7953 1553.5273,-635.0233 1552.7018,-645.586 1559.4689,-643.7953"/>
</g>
<!-- u13 -->
<g id="node13" class="node">
<title>u13</title>
<ellipse fill="#ffbbff" stroke="#000000" cx="1342.7584" cy="-891" rx="101.6813" ry="18"/>
<text text-anchor="middle" x="1342.7584" y="-886.8" font-family="Times,serif" font-size="14.00" fill="#000000">Constellation.Node.Types</text>
</g>
<!-- u12&#45;&gt;u13 -->
<g id="edge17" class="edge">
<title>u12&#45;&gt;u13</title>
<path fill="none" stroke="#000000" d="M1671.5355,-1147.6522C1611.0046,-1100.4002 1443.0979,-969.3278 1373.546,-915.0336"/>
<polygon fill="#000000" stroke="#000000" points="1375.6018,-912.1983 1365.5654,-908.8038 1371.2944,-917.7162 1375.6018,-912.1983"/>
</g>
<!-- u14 -->
<g id="node23" class="node">
<title>u14</title>
<ellipse fill="#ffff77" stroke="#000000" cx="1773.7584" cy="-891" rx="105.3319" ry="18"/>
<text text-anchor="middle" x="1773.7584" y="-886.8" font-family="Times,serif" font-size="14.00" fill="#000000">Constellation.Util.Logging</text>
</g>
<!-- u12&#45;&gt;u14 -->
<g id="edge18" class="edge">
<title>u12&#45;&gt;u14</title>
<path fill="none" stroke="#000000" d="M1699.0074,-1147.0221C1712.6536,-1100.284 1749.3182,-974.7075 1765.6811,-918.6647"/>
<polygon fill="#000000" stroke="#000000" points="1769.047,-919.6243 1768.49,-909.0441 1762.3275,-917.6624 1769.047,-919.6243"/>
</g>
<!-- u8 -->
<g id="node25" class="node">
<title>u8</title>
<ellipse fill="#ffff77" stroke="#000000" cx="2083.7584" cy="-891" rx="111.1033" ry="18"/>
<text text-anchor="middle" x="2083.7584" y="-886.8" font-family="Times,serif" font-size="14.00" fill="#000000">Constellation.Util.Exception</text>
</g>
<!-- u12&#45;&gt;u8 -->
<g id="edge16" class="edge">
<title>u12&#45;&gt;u8</title>
<path fill="none" stroke="#000000" d="M1718.1546,-1147.8601C1785.3534,-1100.6486 1973.2471,-968.6413 2050.2236,-914.5603"/>
<polygon fill="#000000" stroke="#000000" points="2052.4456,-917.2767 2058.616,-908.6641 2048.4215,-911.549 2052.4456,-917.2767"/>
</g>
<!-- u1 -->
<g id="node3" class="node">
<title>u1</title>
<ellipse fill="#ffffbb" stroke="#000000" cx="2260.7584" cy="-1165" rx="87.9157" ry="18"/>
<text text-anchor="middle" x="2260.7584" y="-1160.8" font-family="Times,serif" font-size="14.00" fill="#000000">Constellation.Enclave</text>
</g>
<!-- u1&#45;&gt;u7 -->
<g id="edge3" class="edge">
<title>u1&#45;&gt;u7</title>
<path fill="none" stroke="#000000" d="M2263.2523,-1146.9687C2269.1738,-1096.244 2278.4447,-950.9449 2203.7584,-873 2071.3248,-734.7883 1489.2759,-655.8132 1245.1354,-628.2445"/>
<polygon fill="#000000" stroke="#000000" points="1245.5078,-624.7644 1235.1799,-627.1277 1244.7273,-631.7207 1245.5078,-624.7644"/>
</g>
<!-- u1&#45;&gt;u3 -->
<g id="edge2" class="edge">
<title>u1&#45;&gt;u3</title>
<path fill="none" stroke="#000000" d="M2265.2814,-1146.9474C2276.5589,-1097.3912 2300.6431,-957.3349 2236.7584,-873 2159.9685,-771.629 1784.7812,-672.7296 1623.1118,-634.0554"/>
<polygon fill="#000000" stroke="#000000" points="1623.7813,-630.617 1613.2426,-631.7059 1622.1601,-637.4267 1623.7813,-630.617"/>
</g>
<!-- u2 -->
<g id="node8" class="node">
<title>u2</title>
<ellipse fill="#ffbbbb" stroke="#000000" cx="2431.7584" cy="-891" rx="104.8042" ry="18"/>
<text text-anchor="middle" x="2431.7584" y="-886.8" font-family="Times,serif" font-size="14.00" fill="#000000">Constellation.Enclave.Key</text>
</g>
<!-- u1&#45;&gt;u2 -->
<g id="edge1" class="edge">
<title>u1&#45;&gt;u2</title>
<path fill="none" stroke="#000000" d="M2271.9781,-1147.0221C2301.3284,-1099.9931 2380.495,-973.1413 2415.1412,-917.6263"/>
<polygon fill="#000000" stroke="#000000" points="2418.172,-919.3806 2420.4973,-909.0441 2412.2336,-915.6745 2418.172,-919.3806"/>
</g>
<!-- u1&#45;&gt;u8 -->
<g id="edge4" class="edge">
<title>u1&#45;&gt;u8</title>
<path fill="none" stroke="#000000" d="M2249.1449,-1147.0221C2218.7648,-1099.9931 2136.8204,-973.1413 2100.9586,-917.6263"/>
<polygon fill="#000000" stroke="#000000" points="2103.7807,-915.5448 2095.4146,-909.0441 2097.9008,-919.3431 2103.7807,-915.5448"/>
</g>
<!-- u0 -->
<g id="node4" class="node">
<title>u0</title>
<ellipse fill="#bbbbff" stroke="#000000" cx="2173.7584" cy="-1987" rx="115.9641" ry="18"/>
<text text-anchor="middle" x="2173.7584" y="-1982.8" font-family="Times,serif" font-size="14.00" fill="#000000">Constellation.Configure.Main</text>
</g>
<!-- u11 -->
<g id="node5" class="node">
<title>u11</title>
<ellipse fill="#ffbbbb" stroke="#000000" cx="2416.7584" cy="-1987" rx="108.6719" ry="18"/>
<text text-anchor="middle" x="2416.7584" y="-1982.8" font-family="Times,serif" font-size="14.00" fill="#000000">Constellation.Enclave.Main</text>
</g>
<!-- u4 -->
<g id="node28" class="node">
<title>u4</title>
<ellipse fill="#ffff77" stroke="#000000" cx="2159.7584" cy="-343" rx="113.5433" ry="18"/>
<text text-anchor="middle" x="2159.7584" y="-338.8" font-family="Times,serif" font-size="14.00" fill="#000000">Constellation.Util.ByteString</text>
</g>
<!-- u3&#45;&gt;u4 -->
<g id="edge9" class="edge">
<title>u3&#45;&gt;u4</title>
<path fill="none" stroke="#000000" d="M1586.518,-600.0668C1692.9319,-552.3461 1995.1354,-416.8244 2112.4164,-364.2303"/>
<polygon fill="#000000" stroke="#000000" points="2114.1683,-367.2805 2121.8607,-359.995 2111.304,-360.8933 2114.1683,-367.2805"/>
</g>
<!-- u2&#45;&gt;u3 -->
<g id="edge5" class="edge">
<title>u2&#45;&gt;u3</title>
<path fill="none" stroke="#000000" d="M2380.7909,-875.1845C2228.2633,-827.8543 1775.7419,-687.4343 1610.2575,-636.0835"/>
<polygon fill="#000000" stroke="#000000" points="1610.8341,-632.5979 1600.2461,-632.9769 1608.7595,-639.2834 1610.8341,-632.5979"/>
</g>
<!-- u6 -->
<g id="node26" class="node">
<title>u6</title>
<ellipse fill="#ffff77" stroke="#000000" cx="2295.7584" cy="-617" rx="108.196" ry="18"/>
<text text-anchor="middle" x="2295.7584" y="-612.8" font-family="Times,serif" font-size="14.00" fill="#000000">Constellation.Util.Lockable</text>
</g>
<!-- u2&#45;&gt;u6 -->
<g id="edge8" class="edge">
<title>u2&#45;&gt;u6</title>
<path fill="none" stroke="#000000" d="M2422.835,-873.0221C2399.5884,-826.187 2337.0478,-700.1861 2309.317,-644.3168"/>
<polygon fill="#000000" stroke="#000000" points="2312.2956,-642.4453 2304.7146,-635.0441 2306.0255,-645.5575 2312.2956,-642.4453"/>
</g>
<!-- u5 -->
<g id="node27" class="node">
<title>u5</title>
<ellipse fill="#ffff77" stroke="#000000" cx="2295.7584" cy="-69" rx="97.1121" ry="18"/>
<text text-anchor="middle" x="2295.7584" y="-64.8" font-family="Times,serif" font-size="14.00" fill="#000000">Constellation.Util.Either</text>
</g>
<!-- u2&#45;&gt;u5 -->
<g id="edge7" class="edge">
<title>u2&#45;&gt;u5</title>
<path fill="none" stroke="#000000" d="M2431.5351,-872.7906C2430.7621,-826.7166 2427.371,-701.8566 2412.7584,-599 2385.1629,-404.7585 2325.0626,-175.8939 2303.584,-97.2099"/>
<polygon fill="#000000" stroke="#000000" points="2306.8378,-95.841 2300.817,-87.1232 2300.0872,-97.6929 2306.8378,-95.841"/>
</g>
<!-- u2&#45;&gt;u4 -->
<g id="edge6" class="edge">
<title>u2&#45;&gt;u4</title>
<path fill="none" stroke="#000000" d="M2404.4343,-873.5353C2349.969,-836.9671 2228.8208,-746.4325 2178.7584,-635 2138.6358,-545.6925 2148.1555,-425.3617 2155.313,-371.3321"/>
<polygon fill="#000000" stroke="#000000" points="2158.8193,-371.5302 2156.7416,-361.1411 2151.8871,-370.5583 2158.8193,-371.5302"/>
</g>
<!-- u9 -->
<g id="node9" class="node">
<title>u9</title>
<ellipse fill="#bbffff" stroke="#000000" cx="2505.7584" cy="-1165" rx="138.5974" ry="18"/>
<text text-anchor="middle" x="2505.7584" y="-1160.8" font-family="Times,serif" font-size="14.00" fill="#000000">Constellation.Enclave.Keygen.Main</text>
</g>
<!-- u9&#45;&gt;u2 -->
<g id="edge12" class="edge">
<title>u9&#45;&gt;u2</title>
<path fill="none" stroke="#000000" d="M2500.7881,-1146.5966C2488.1236,-1099.7036 2454.5737,-975.4783 2439.4011,-919.2986"/>
<polygon fill="#000000" stroke="#000000" points="2442.6933,-918.0648 2436.707,-909.3233 2435.9354,-919.89 2442.6933,-918.0648"/>
</g>
<!-- u10 -->
<g id="node24" class="node">
<title>u10</title>
<ellipse fill="#ffff77" stroke="#000000" cx="1907.7584" cy="-617" rx="91.0733" ry="18"/>
<text text-anchor="middle" x="1907.7584" y="-612.8" font-family="Times,serif" font-size="14.00" fill="#000000">Constellation.Util.Text</text>
</g>
<!-- u9&#45;&gt;u10 -->
<g id="edge13" class="edge">
<title>u9&#45;&gt;u10</title>
<path fill="none" stroke="#000000" d="M2494.0889,-1146.7333C2462.6455,-1098.3806 2371.9417,-964.5013 2274.7584,-873 2167.5814,-772.0894 2017.9901,-680.3048 1947.4974,-639.4251"/>
<polygon fill="#000000" stroke="#000000" points="1948.9029,-636.1953 1938.4918,-634.2304 1945.4053,-642.2588 1948.9029,-636.1953"/>
</g>
<!-- u19&#45;&gt;u12 -->
<g id="edge34" class="edge">
<title>u19&#45;&gt;u12</title>
<path fill="none" stroke="#000000" d="M1995.605,-1694.9536C1961.9653,-1654.3316 1879.693,-1551.8374 1824.7584,-1457 1770.9925,-1364.1802 1723.8181,-1245.2926 1703.871,-1192.4421"/>
<polygon fill="#000000" stroke="#000000" points="1707.1458,-1191.2069 1700.359,-1183.0712 1700.591,-1193.6635 1707.1458,-1191.2069"/>
</g>
<!-- u19&#45;&gt;u1 -->
<g id="edge31" class="edge">
<title>u19&#45;&gt;u1</title>
<path fill="none" stroke="#000000" d="M2019.0763,-1694.7671C2055.8954,-1614.0597 2204.3262,-1288.6994 2248.3757,-1192.1428"/>
<polygon fill="#000000" stroke="#000000" points="2251.5697,-1193.574 2252.536,-1183.0233 2245.2011,-1190.6686 2251.5697,-1193.574"/>
</g>
<!-- u19&#45;&gt;u2 -->
<g id="edge32" class="edge">
<title>u19&#45;&gt;u2</title>
<path fill="none" stroke="#000000" d="M2088.0691,-1701.5557C2280.8885,-1671.316 2774.695,-1582.8814 2873.7584,-1457 2959.0505,-1348.6179 2957.4354,-1266.0233 2887.7584,-1147 2805.0281,-1005.6791 2612.5108,-936.4161 2505.9796,-907.8256"/>
<polygon fill="#000000" stroke="#000000" points="2506.8214,-904.428 2496.2597,-905.2659 2505.0387,-911.1972 2506.8214,-904.428"/>
</g>
<!-- u19&#45;&gt;u9 -->
<g id="edge33" class="edge">
<title>u19&#45;&gt;u9</title>
<path fill="none" stroke="#000000" d="M2026.9465,-1695.0786C2099.7216,-1614.5115 2396.7748,-1285.6525 2482.4978,-1190.7511"/>
<polygon fill="#000000" stroke="#000000" points="2485.338,-1192.8283 2489.4438,-1183.0613 2480.1434,-1188.1361 2485.338,-1192.8283"/>
</g>
<!-- u17 -->
<g id="node11" class="node">
<title>u17</title>
<ellipse fill="#ffbbff" stroke="#000000" cx="2759.7584" cy="-1439" rx="104.8559" ry="18"/>
<text text-anchor="middle" x="2759.7584" y="-1434.8" font-family="Times,serif" font-size="14.00" fill="#000000">Constellation.Node.Config</text>
</g>
<!-- u19&#45;&gt;u17 -->
<g id="edge38" class="edge">
<title>u19&#45;&gt;u17</title>
<path fill="none" stroke="#000000" d="M2055.0917,-1696.7819C2184.7535,-1649.3489 2563.0501,-1510.96 2705.0517,-1459.0129"/>
<polygon fill="#000000" stroke="#000000" points="2706.6719,-1462.1471 2714.8608,-1455.4245 2704.267,-1455.5731 2706.6719,-1462.1471"/>
</g>
<!-- u15 -->
<g id="node12" class="node">
<title>u15</title>
<ellipse fill="#ffbbff" stroke="#000000" cx="1464.7584" cy="-1439" rx="94.2224" ry="18"/>
<text text-anchor="middle" x="1464.7584" y="-1434.8" font-family="Times,serif" font-size="14.00" fill="#000000">Constellation.Node.Api</text>
</g>
<!-- u19&#45;&gt;u15 -->
<g id="edge37" class="edge">
<title>u19&#45;&gt;u15</title>
<path fill="none" stroke="#000000" d="M1976.6036,-1695.8601C1881.3088,-1648.0381 1612.6427,-1513.213 1507.6049,-1460.5017"/>
<polygon fill="#000000" stroke="#000000" points="1509.0584,-1457.3152 1498.5508,-1455.9581 1505.9187,-1463.5716 1509.0584,-1457.3152"/>
</g>
<!-- u19&#45;&gt;u13 -->
<g id="edge35" class="edge">
<title>u19&#45;&gt;u13</title>
<path fill="none" stroke="#000000" d="M1996.185,-1695.0669C1909.9231,-1588.9183 1466.4998,-1043.2687 1363.9464,-917.0727"/>
<polygon fill="#000000" stroke="#000000" points="1366.4485,-914.6019 1357.4256,-909.0486 1361.0161,-919.0166 1366.4485,-914.6019"/>
</g>
<!-- u21 -->
<g id="node17" class="node">
<title>u21</title>
<ellipse fill="#77ff77" stroke="#000000" cx="2010.7584" cy="-1165" rx="143.9099" ry="18"/>
<text text-anchor="middle" x="2010.7584" y="-1160.8" font-family="Times,serif" font-size="14.00" fill="#000000">Constellation.Node.Storage.Directory</text>
</g>
<!-- u19&#45;&gt;u21 -->
<g id="edge40" class="edge">
<title>u19&#45;&gt;u21</title>
<path fill="none" stroke="#000000" d="M2010.7584,-1694.7671C2010.7584,-1614.3042 2010.7584,-1290.669 2010.7584,-1193.0269"/>
<polygon fill="#000000" stroke="#000000" points="2014.2585,-1193.0233 2010.7584,-1183.0233 2007.2585,-1193.0234 2014.2585,-1193.0233"/>
</g>
<!-- u20 -->
<g id="node18" class="node">
<title>u20</title>
<ellipse fill="#77ff77" stroke="#000000" cx="216.7584" cy="-1165" rx="152.5971" ry="18"/>
<text text-anchor="middle" x="216.7584" y="-1160.8" font-family="Times,serif" font-size="14.00" fill="#000000">Constellation.Node.Storage.BerkeleyDb</text>
</g>
<!-- u19&#45;&gt;u20 -->
<g id="edge39" class="edge">
<title>u19&#45;&gt;u20</title>
<path fill="none" stroke="#000000" d="M1959.9572,-1697.4822C1705.0993,-1619.6326 566.8086,-1271.9273 281.6819,-1184.8317"/>
<polygon fill="#000000" stroke="#000000" points="282.4881,-1181.4184 271.9018,-1181.8443 280.4431,-1188.113 282.4881,-1181.4184"/>
</g>
<!-- u22 -->
<g id="node20" class="node">
<title>u22</title>
<ellipse fill="#ffff77" stroke="#000000" cx="3049.7584" cy="-1439" rx="99.0589" ry="18"/>
<text text-anchor="middle" x="3049.7584" y="-1434.8" font-family="Times,serif" font-size="14.00" fill="#000000">Constellation.Util.AtExit</text>
</g>
<!-- u19&#45;&gt;u22 -->
<g id="edge41" class="edge">
<title>u19&#45;&gt;u22</title>
<path fill="none" stroke="#000000" d="M2067.3574,-1698.074C2245.3121,-1651.1446 2792.9465,-1506.7252 2983.5417,-1456.4623"/>
<polygon fill="#000000" stroke="#000000" points="2984.6485,-1459.7902 2993.4254,-1453.8559 2982.8634,-1453.0216 2984.6485,-1459.7902"/>
</g>
<!-- u19&#45;&gt;u14 -->
<g id="edge36" class="edge">
<title>u19&#45;&gt;u14</title>
<path fill="none" stroke="#000000" d="M2005.4672,-1694.6943C1985.8708,-1626.8923 1915.5713,-1383.6172 1857.7584,-1183 1829.8125,-1086.0247 1796.7212,-970.9092 1781.7836,-918.9298"/>
<polygon fill="#000000" stroke="#000000" points="1785.0882,-917.7566 1778.9624,-909.1123 1778.3605,-919.69 1785.0882,-917.7566"/>
</g>
<!-- u18 -->
<g id="node21" class="node">
<title>u18</title>
<ellipse fill="#ffff77" stroke="#000000" cx="2759.7584" cy="-1165" rx="97.1381" ry="18"/>
<text text-anchor="middle" x="2759.7584" y="-1160.8" font-family="Times,serif" font-size="14.00" fill="#000000">Constellation.Util.String</text>
</g>
<!-- u17&#45;&gt;u18 -->
<g id="edge30" class="edge">
<title>u17&#45;&gt;u18</title>
<path fill="none" stroke="#000000" d="M2759.7584,-1420.5966C2759.7584,-1373.801 2759.7584,-1249.9945 2759.7584,-1193.6499"/>
<polygon fill="#000000" stroke="#000000" points="2763.2585,-1193.3232 2759.7584,-1183.3233 2756.2585,-1193.3233 2763.2585,-1193.3232"/>
</g>
<!-- u17&#45;&gt;u8 -->
<g id="edge29" class="edge">
<title>u17&#45;&gt;u8</title>
<path fill="none" stroke="#000000" d="M2777.1232,-1420.9364C2821.5346,-1372.5188 2931.2776,-1237.3894 2865.7584,-1147 2782.1988,-1031.7223 2354.6509,-940.7561 2169.4635,-906.1325"/>
<polygon fill="#000000" stroke="#000000" points="2169.9629,-902.6654 2159.4916,-904.2788 2168.6835,-909.5475 2169.9629,-902.6654"/>
</g>
<!-- u15&#45;&gt;u12 -->
<g id="edge25" class="edge">
<title>u15&#45;&gt;u12</title>
<path fill="none" stroke="#000000" d="M1479.7837,-1421.0221C1519.3457,-1373.6859 1626.4952,-1245.4808 1672.4065,-1190.5477"/>
<polygon fill="#000000" stroke="#000000" points="1675.2481,-1192.6055 1678.9754,-1182.6879 1669.877,-1188.1164 1675.2481,-1192.6055"/>
</g>
<!-- u15&#45;&gt;u7 -->
<g id="edge24" class="edge">
<title>u15&#45;&gt;u7</title>
<path fill="none" stroke="#000000" d="M1371.133,-1436.9149C1083.8606,-1428.3557 224.1609,-1385.9288 54.7584,-1183 -235.623,-835.1497 713.1576,-673.5981 1034.3047,-629.7412"/>
<polygon fill="#000000" stroke="#000000" points="1035.1027,-633.1652 1044.5422,-628.354 1034.1627,-626.2285 1035.1027,-633.1652"/>
</g>
<!-- u15&#45;&gt;u3 -->
<g id="edge22" class="edge">
<title>u15&#45;&gt;u3</title>
<path fill="none" stroke="#000000" d="M1468.6414,-1420.7841C1477.4042,-1378.9739 1498.8014,-1272.8115 1509.7584,-1183 1534.8156,-977.6121 1545.0106,-728.1819 1547.8624,-645.2879"/>
<polygon fill="#000000" stroke="#000000" points="1551.3651,-645.2606 1548.2027,-635.1488 1544.3691,-645.0257 1551.3651,-645.2606"/>
</g>
<!-- u15&#45;&gt;u13 -->
<g id="edge26" class="edge">
<title>u15&#45;&gt;u13</title>
<path fill="none" stroke="#000000" d="M1470.7833,-1420.848C1485.2776,-1374.393 1518.9471,-1247.7632 1491.7584,-1147 1466.7762,-1054.4143 1399.1264,-960.8743 1364.2272,-916.899"/>
<polygon fill="#000000" stroke="#000000" points="1366.8975,-914.6344 1357.9078,-909.0277 1361.439,-919.0168 1366.8975,-914.6344"/>
</g>
<!-- u16 -->
<g id="node22" class="node">
<title>u16</title>
<ellipse fill="#ffff77" stroke="#000000" cx="476.7584" cy="-1165" rx="89.447" ry="18"/>
<text text-anchor="middle" x="476.7584" y="-1160.8" font-family="Times,serif" font-size="14.00" fill="#000000">Constellation.Util.Wai</text>
</g>
<!-- u15&#45;&gt;u16 -->
<g id="edge28" class="edge">
<title>u15&#45;&gt;u16</title>
<path fill="none" stroke="#000000" d="M1411.2889,-1424.1714C1242.3329,-1377.3152 720.4295,-1232.5768 539.3805,-1182.3669"/>
<polygon fill="#000000" stroke="#000000" points="540.0539,-1178.9216 529.4823,-1179.6218 538.1832,-1185.667 540.0539,-1178.9216"/>
</g>
<!-- u15&#45;&gt;u14 -->
<g id="edge27" class="edge">
<title>u15&#45;&gt;u14</title>
<path fill="none" stroke="#000000" d="M1502.4839,-1422.3709C1573.003,-1388.9209 1722.9754,-1306.0292 1781.7584,-1183 1823.9819,-1094.6287 1797.9461,-973.4106 1782.6101,-919.1977"/>
<polygon fill="#000000" stroke="#000000" points="1785.8753,-917.8935 1779.7089,-909.2781 1779.1568,-919.8585 1785.8753,-917.8935"/>
</g>
<!-- u15&#45;&gt;u4 -->
<g id="edge23" class="edge">
<title>u15&#45;&gt;u4</title>
<path fill="none" stroke="#000000" d="M1386.0439,-1429.0759C1165.7581,-1399.284 562.3144,-1302.9312 612.7584,-1147 705.2485,-861.0964 757.7296,-764.1662 1008.7584,-599 1183.9692,-483.7188 1816.1217,-388.9708 2061.4627,-355.7443"/>
<polygon fill="#000000" stroke="#000000" points="2061.9976,-359.2039 2071.4397,-354.3981 2061.0615,-352.2667 2061.9976,-359.2039"/>
</g>
<!-- u13&#45;&gt;u7 -->
<g id="edge20" class="edge">
<title>u13&#45;&gt;u7</title>
<path fill="none" stroke="#000000" d="M1329.2421,-873.0221C1293.8116,-825.8961 1198.1207,-698.6179 1156.5192,-643.2839"/>
<polygon fill="#000000" stroke="#000000" points="1159.1313,-640.9338 1150.3244,-635.0441 1153.5362,-645.1404 1159.1313,-640.9338"/>
</g>
<!-- u13&#45;&gt;u3 -->
<g id="edge19" class="edge">
<title>u13&#45;&gt;u3</title>
<path fill="none" stroke="#000000" d="M1356.2746,-873.0221C1391.7051,-825.8961 1487.396,-698.6179 1528.9975,-643.2839"/>
<polygon fill="#000000" stroke="#000000" points="1531.9805,-645.1404 1535.1924,-635.0441 1526.3854,-640.9338 1531.9805,-645.1404"/>
</g>
<!-- u27 -->
<g id="node14" class="node">
<title>u27</title>
<ellipse fill="#77ff77" stroke="#000000" cx="1351.7584" cy="-1165" rx="130.9143" ry="18"/>
<text text-anchor="middle" x="1351.7584" y="-1160.8" font-family="Times,serif" font-size="14.00" fill="#000000">Constellation.Node.Storage.Sqlite</text>
</g>
<!-- u27&#45;&gt;u7 -->
<g id="edge58" class="edge">
<title>u27&#45;&gt;u7</title>
<path fill="none" stroke="#000000" d="M1342.3848,-1147.0256C1321.054,-1105.7166 1267.937,-1000.5243 1231.7584,-909 1194.1732,-813.9174 1159.5842,-697.4146 1144.5969,-644.9517"/>
<polygon fill="#000000" stroke="#000000" points="1147.8832,-643.7115 1141.7839,-635.0484 1141.1496,-645.6243 1147.8832,-643.7115"/>
</g>
<!-- u27&#45;&gt;u3 -->
<g id="edge57" class="edge">
<title>u27&#45;&gt;u3</title>
<path fill="none" stroke="#000000" d="M1359.4641,-1146.8405C1377.0521,-1105.1474 1421.1502,-999.2115 1453.7584,-909 1488.4293,-813.0816 1524.3375,-697.4433 1540.2693,-645.1322"/>
<polygon fill="#000000" stroke="#000000" points="1543.7136,-645.835 1543.2707,-635.2494 1537.0157,-643.8008 1543.7136,-645.835"/>
</g>
<!-- u27&#45;&gt;u13 -->
<g id="edge59" class="edge">
<title>u27&#45;&gt;u13</title>
<path fill="none" stroke="#000000" d="M1351.1539,-1146.5966C1349.6168,-1099.801 1345.5501,-975.9945 1343.6994,-919.6499"/>
<polygon fill="#000000" stroke="#000000" points="1347.1867,-919.2029 1343.3602,-909.3233 1340.1905,-919.4328 1347.1867,-919.2029"/>
</g>
<!-- u26 -->
<g id="node15" class="node">
<title>u26</title>
<ellipse fill="#77ff77" stroke="#000000" cx="762.7584" cy="-1165" rx="141.02" ry="18"/>
<text text-anchor="middle" x="762.7584" y="-1160.8" font-family="Times,serif" font-size="14.00" fill="#000000">Constellation.Node.Storage.LevelDb</text>
</g>
<!-- u26&#45;&gt;u7 -->
<g id="edge55" class="edge">
<title>u26&#45;&gt;u7</title>
<path fill="none" stroke="#000000" d="M775.202,-1146.7671C830.3946,-1065.8966 1053.2336,-739.3838 1118.6314,-643.5604"/>
<polygon fill="#000000" stroke="#000000" points="1121.7115,-645.2561 1124.4578,-635.0233 1115.9297,-641.3101 1121.7115,-645.2561"/>
</g>
<!-- u26&#45;&gt;u3 -->
<g id="edge54" class="edge">
<title>u26&#45;&gt;u3</title>
<path fill="none" stroke="#000000" d="M788.4631,-1147.0786C904.8473,-1065.9355 1382.4682,-732.9377 1514.6911,-640.7517"/>
<polygon fill="#000000" stroke="#000000" points="1517.0484,-643.375 1523.2497,-634.7846 1513.0449,-637.6328 1517.0484,-643.375"/>
</g>
<!-- u26&#45;&gt;u13 -->
<g id="edge56" class="edge">
<title>u26&#45;&gt;u13</title>
<path fill="none" stroke="#000000" d="M799.9223,-1147.4433C902.0798,-1099.1827 1186.8939,-964.6325 1297.7746,-912.251"/>
<polygon fill="#000000" stroke="#000000" points="1299.4708,-915.3206 1307.0176,-907.8844 1296.4807,-908.9913 1299.4708,-915.3206"/>
</g>
<!-- u23 -->
<g id="node16" class="node">
<title>u23</title>
<ellipse fill="#77ff77" stroke="#000000" cx="1062.7584" cy="-1165" rx="140.5527" ry="18"/>
<text text-anchor="middle" x="1062.7584" y="-1160.8" font-family="Times,serif" font-size="14.00" fill="#000000">Constellation.Node.Storage.Memory</text>
</g>
<!-- u23&#45;&gt;u7 -->
<g id="edge51" class="edge">
<title>u23&#45;&gt;u7</title>
<path fill="none" stroke="#000000" d="M1065.2205,-1146.7671C1076.0859,-1066.3042 1119.7885,-742.669 1132.9737,-645.0269"/>
<polygon fill="#000000" stroke="#000000" points="1136.4548,-645.4018 1134.3245,-635.0233 1129.5177,-644.465 1136.4548,-645.4018"/>
</g>
<!-- u23&#45;&gt;u3 -->
<g id="edge50" class="edge">
<title>u23&#45;&gt;u3</title>
<path fill="none" stroke="#000000" d="M1070.4474,-1146.7756C1091.3748,-1098.5267 1153.0954,-964.879 1231.7584,-873 1318.3196,-771.8958 1448.8761,-681.1237 1512.0004,-640.1097"/>
<polygon fill="#000000" stroke="#000000" points="1513.9447,-643.0206 1520.4484,-634.6568 1510.1485,-637.1393 1513.9447,-643.0206"/>
</g>
<!-- u23&#45;&gt;u13 -->
<g id="edge52" class="edge">
<title>u23&#45;&gt;u13</title>
<path fill="none" stroke="#000000" d="M1081.1299,-1147.0221C1129.5852,-1099.6052 1260.9621,-971.0435 1316.9376,-916.2674"/>
<polygon fill="#000000" stroke="#000000" points="1319.6198,-918.5397 1324.3191,-909.0441 1314.7239,-913.5367 1319.6198,-918.5397"/>
</g>
<!-- u21&#45;&gt;u7 -->
<g id="edge46" class="edge">
<title>u21&#45;&gt;u7</title>
<path fill="none" stroke="#000000" d="M2008.2908,-1146.6493C2000.481,-1095.7153 1971.6523,-951.206 1887.7584,-873 1707.3976,-704.8676 1412.0851,-646.6975 1250.7575,-626.9155"/>
<polygon fill="#000000" stroke="#000000" points="1251.1481,-623.4374 1240.8027,-625.7228 1250.3153,-630.3877 1251.1481,-623.4374"/>
</g>
<!-- u21&#45;&gt;u3 -->
<g id="edge45" class="edge">
<title>u21&#45;&gt;u3</title>
<path fill="none" stroke="#000000" d="M2009.2734,-1146.7288C2004.4872,-1097.7957 1985.7633,-961.5006 1920.7584,-873 1834.7965,-755.9678 1678.4905,-674.2749 1598.6301,-638.0479"/>
<polygon fill="#000000" stroke="#000000" points="1599.8366,-634.7532 1589.2799,-633.8561 1596.973,-641.1407 1599.8366,-634.7532"/>
</g>
<!-- u21&#45;&gt;u13 -->
<g id="edge48" class="edge">
<title>u21&#45;&gt;u13</title>
<path fill="none" stroke="#000000" d="M1968.7189,-1147.7563C1851.1431,-1099.5291 1519.2774,-963.4045 1392.6776,-911.4759"/>
<polygon fill="#000000" stroke="#000000" points="1393.7886,-908.1486 1383.2084,-907.5918 1391.1321,-914.625 1393.7886,-908.1486"/>
</g>
<!-- u21&#45;&gt;u14 -->
<g id="edge49" class="edge">
<title>u21&#45;&gt;u14</title>
<path fill="none" stroke="#000000" d="M1995.2081,-1147.0221C1954.362,-1099.7991 1843.9015,-972.0937 1796.1983,-916.9432"/>
<polygon fill="#000000" stroke="#000000" points="1798.555,-914.3177 1789.3658,-909.0441 1793.2607,-918.8971 1798.555,-914.3177"/>
</g>
<!-- u21&#45;&gt;u8 -->
<g id="edge47" class="edge">
<title>u21&#45;&gt;u8</title>
<path fill="none" stroke="#000000" d="M2015.6614,-1146.5966C2028.1549,-1099.7036 2061.2514,-975.4783 2076.2189,-919.2986"/>
<polygon fill="#000000" stroke="#000000" points="2079.6841,-919.8873 2078.8766,-909.3233 2072.9201,-918.0851 2079.6841,-919.8873"/>
</g>
<!-- u20&#45;&gt;u7 -->
<g id="edge43" class="edge">
<title>u20&#45;&gt;u7</title>
<path fill="none" stroke="#000000" d="M246.5854,-1147.2335C382.9042,-1066.0349 946.5279,-730.3112 1098.7318,-639.6506"/>
<polygon fill="#000000" stroke="#000000" points="1100.531,-642.6528 1107.3312,-634.5283 1096.9487,-636.6389 1100.531,-642.6528"/>
</g>
<!-- u20&#45;&gt;u3 -->
<g id="edge42" class="edge">
<title>u20&#45;&gt;u3</title>
<path fill="none" stroke="#000000" d="M258.8224,-1147.6944C455.6779,-1066.7058 1285.3391,-725.3737 1498.6092,-637.6319"/>
<polygon fill="#000000" stroke="#000000" points="1500.0851,-640.8094 1508.0013,-633.7679 1497.4217,-634.3359 1500.0851,-640.8094"/>
</g>
<!-- u20&#45;&gt;u13 -->
<g id="edge44" class="edge">
<title>u20&#45;&gt;u13</title>
<path fill="none" stroke="#000000" d="M283.4063,-1148.7819C482.2516,-1100.3951 1070.0626,-957.3576 1272.9572,-907.9854"/>
<polygon fill="#000000" stroke="#000000" points="1274.0112,-911.3311 1282.9001,-905.5659 1272.3561,-904.5296 1274.0112,-911.3311"/>
</g>
<!-- u24 -->
<g id="node19" class="node">
<title>u24</title>
<ellipse fill="#ffff77" stroke="#000000" cx="2649.7584" cy="-1987" rx="106.2837" ry="18"/>
<text text-anchor="middle" x="2649.7584" y="-1982.8" font-family="Times,serif" font-size="14.00" fill="#000000">Constellation.Util.Network</text>
</g>
<!-- u14&#45;&gt;u10 -->
<g id="edge21" class="edge">
<title>u14&#45;&gt;u10</title>
<path fill="none" stroke="#000000" d="M1782.5505,-873.0221C1805.4552,-826.187 1867.0761,-700.1861 1894.3991,-644.3168"/>
<polygon fill="#000000" stroke="#000000" points="1897.6847,-645.565 1898.9339,-635.0441 1891.3964,-642.4897 1897.6847,-645.565"/>
</g>
<!-- u6&#45;&gt;u4 -->
<g id="edge11" class="edge">
<title>u6&#45;&gt;u4</title>
<path fill="none" stroke="#000000" d="M2286.835,-599.0221C2263.5884,-552.187 2201.0478,-426.1861 2173.317,-370.3168"/>
<polygon fill="#000000" stroke="#000000" points="2176.2956,-368.4453 2168.7146,-361.0441 2170.0255,-371.5575 2176.2956,-368.4453"/>
</g>
<!-- u4&#45;&gt;u5 -->
<g id="edge10" class="edge">
<title>u4&#45;&gt;u5</title>
<path fill="none" stroke="#000000" d="M2168.6817,-325.0221C2191.9283,-278.187 2254.4689,-152.1861 2282.1997,-96.3168"/>
<polygon fill="#000000" stroke="#000000" points="2285.4912,-97.5575 2286.8022,-87.0441 2279.2211,-94.4453 2285.4912,-97.5575"/>
</g>
</g>
</svg>
